# xmcd
#
# Track frame offsets: 
#        182
#        3087
#        35322
#        55767
#        103345
#        132797
#        180992
#        188375
#        216140
#        238415
#        251015
#
# Disc length: 3568 seconds
#
# Revision: 3
# Processed by: cddbd v1.5.2PL0 Copyright (c) Steve Scherf et al.
# Submitted via: ExactAudioCopy v0.99pb3
#
DISCID=8a0dee0b
DTITLE=The Meters - Uptown Rulers! (Live On The Queen Mary)
DYEAR=1975
DGENRE=Funk
TTITLE0=Gary Owens Introduces the Band
TTITLE1=Fire On The Bayou
TTITLE2=Africa
TTITLE3=It Ain't No Use
TTITLE4=Make It With You
TTITLE5=Cissy Strut/Cardova - It's Your Thing - Love The One You're With
TTITLE5=(medley)
TTITLE6=Art Neville Addresses the Audience
TTITLE7=Rocking Pneumonia And The Boogie Woogie Flu - Something You Got
TTITLE7=I Know (You Don't Love Me No More) - Everybody Loves A Lover 
TTITLE7=(me
TTITLE8=Liar
TTITLE9=Mardi Gras Mambo
TTITLE10=Encore: Hey Pocky A-Way
EXTD=YEAR: 1975
EXTT0=
EXTT1=
EXTT2=
EXTT3=
EXTT4=
EXTT5=
EXTT6=
EXTT7=
EXTT8=
EXTT9=
EXTT10=
PLAYORDER=
